<svg xmlns="http://www.w3.org/2000/svg" viewBox="0 0 960 336" width="960" height="336" role="img"><title>Accuracy difference of each paired comparison, in percentage points, with its 95% interval</title><style>text{font:13px ui-monospace,SFMono-Regular,Menlo,Consolas,"DejaVu Sans Mono",monospace;white-space:pre}</style><path fill="#2563eb" d="M0 22.5h8v3h-8zM8 22.5h8v3h-8zM444.1 58a1.9 1.9 0 1 0 3.8 0a1.9 1.9 0 1 0 -3.8 0M448.1 58a1.9 1.9 0 1 0 3.8 0a1.9 1.9 0 1 0 -3.8 0M452.1 58a1.9 1.9 0 1 0 3.8 0a1.9 1.9 0 1 0 -3.8 0M456.1 58a1.9 1.9 0 1 0 3.8 0a1.9 1.9 0 1 0 -3.8 0M460.1 54a1.9 1.9 0 1 0 3.8 0a1.9 1.9 0 1 0 -3.8 0M460.1 58a1.9 1.9 0 1 0 3.8 0a1.9 1.9 0 1 0 -3.8 0M460.1 62a1.9 1.9 0 1 0 3.8 0a1.9 1.9 0 1 0 -3.8 0M464.1 58a1.9 1.9 0 1 0 3.8 0a1.9 1.9 0 1 0 -3.8 0M468.1 58a1.9 1.9 0 1 0 3.8 0a1.9 1.9 0 1 0 -3.8 0M472.1 58a1.9 1.9 0 1 0 3.8 0a1.9 1.9 0 1 0 -3.8 0M440.1 90a1.9 1.9 0 1 0 3.8 0a1.9 1.9 0 1 0 -3.8 0M444.1 90a1.9 1.9 0 1 0 3.8 0a1.9 1.9 0 1 0 -3.8 0M448.1 90a1.9 1.9 0 1 0 3.8 0a1.9 1.9 0 1 0 -3.8 0M452.1 90a1.9 1.9 0 1 0 3.8 0a1.9 1.9 0 1 0 -3.8 0M456.1 90a1.9 1.9 0 1 0 3.8 0a1.9 1.9 0 1 0 -3.8 0M460.1 86a1.9 1.9 0 1 0 3.8 0a1.9 1.9 0 1 0 -3.8 0M460.1 90a1.9 1.9 0 1 0 3.8 0a1.9 1.9 0 1 0 -3.8 0M460.1 94a1.9 1.9 0 1 0 3.8 0a1.9 1.9 0 1 0 -3.8 0M464.1 90a1.9 1.9 0 1 0 3.8 0a1.9 1.9 0 1 0 -3.8 0M468.1 90a1.9 1.9 0 1 0 3.8 0a1.9 1.9 0 1 0 -3.8 0M472.1 90a1.9 1.9 0 1 0 3.8 0a1.9 1.9 0 1 0 -3.8 0M476.1 90a1.9 1.9 0 1 0 3.8 0a1.9 1.9 0 1 0 -3.8 0M480.1 90a1.9 1.9 0 1 0 3.8 0a1.9 1.9 0 1 0 -3.8 0M508.1 106a1.9 1.9 0 1 0 3.8 0a1.9 1.9 0 1 0 -3.8 0M512.1 106a1.9 1.9 0 1 0 3.8 0a1.9 1.9 0 1 0 -3.8 0M516.1 106a1.9 1.9 0 1 0 3.8 0a1.9 1.9 0 1 0 -3.8 0M520.1 106a1.9 1.9 0 1 0 3.8 0a1.9 1.9 0 1 0 -3.8 0M524.1 106a1.9 1.9 0 1 0 3.8 0a1.9 1.9 0 1 0 -3.8 0M528.1 106a1.9 1.9 0 1 0 3.8 0a1.9 1.9 0 1 0 -3.8 0M532.1 102a1.9 1.9 0 1 0 3.8 0a1.9 1.9 0 1 0 -3.8 0M532.1 106a1.9 1.9 0 1 0 3.8 0a1.9 1.9 0 1 0 -3.8 0M532.1 110a1.9 1.9 0 1 0 3.8 0a1.9 1.9 0 1 0 -3.8 0M536.1 106a1.9 1.9 0 1 0 3.8 0a1.9 1.9 0 1 0 -3.8 0M540.1 106a1.9 1.9 0 1 0 3.8 0a1.9 1.9 0 1 0 -3.8 0M544.1 106a1.9 1.9 0 1 0 3.8 0a1.9 1.9 0 1 0 -3.8 0M548.1 106a1.9 1.9 0 1 0 3.8 0a1.9 1.9 0 1 0 -3.8 0M552.1 106a1.9 1.9 0 1 0 3.8 0a1.9 1.9 0 1 0 -3.8 0M556.1 106a1.9 1.9 0 1 0 3.8 0a1.9 1.9 0 1 0 -3.8 0M560.1 106a1.9 1.9 0 1 0 3.8 0a1.9 1.9 0 1 0 -3.8 0M472.1 122a1.9 1.9 0 1 0 3.8 0a1.9 1.9 0 1 0 -3.8 0M476.1 122a1.9 1.9 0 1 0 3.8 0a1.9 1.9 0 1 0 -3.8 0M480.1 122a1.9 1.9 0 1 0 3.8 0a1.9 1.9 0 1 0 -3.8 0M484.1 122a1.9 1.9 0 1 0 3.8 0a1.9 1.9 0 1 0 -3.8 0M488.1 122a1.9 1.9 0 1 0 3.8 0a1.9 1.9 0 1 0 -3.8 0M492.1 122a1.9 1.9 0 1 0 3.8 0a1.9 1.9 0 1 0 -3.8 0M496.1 118a1.9 1.9 0 1 0 3.8 0a1.9 1.9 0 1 0 -3.8 0M496.1 122a1.9 1.9 0 1 0 3.8 0a1.9 1.9 0 1 0 -3.8 0M500.1 122a1.9 1.9 0 1 0 3.8 0a1.9 1.9 0 1 0 -3.8 0M496.1 126a1.9 1.9 0 1 0 3.8 0a1.9 1.9 0 1 0 -3.8 0M504.1 122a1.9 1.9 0 1 0 3.8 0a1.9 1.9 0 1 0 -3.8 0M508.1 122a1.9 1.9 0 1 0 3.8 0a1.9 1.9 0 1 0 -3.8 0M512.1 122a1.9 1.9 0 1 0 3.8 0a1.9 1.9 0 1 0 -3.8 0M516.1 122a1.9 1.9 0 1 0 3.8 0a1.9 1.9 0 1 0 -3.8 0M520.1 122a1.9 1.9 0 1 0 3.8 0a1.9 1.9 0 1 0 -3.8 0M420.1 138a1.9 1.9 0 1 0 3.8 0a1.9 1.9 0 1 0 -3.8 0M424.1 138a1.9 1.9 0 1 0 3.8 0a1.9 1.9 0 1 0 -3.8 0M428.1 138a1.9 1.9 0 1 0 3.8 0a1.9 1.9 0 1 0 -3.8 0M432.1 138a1.9 1.9 0 1 0 3.8 0a1.9 1.9 0 1 0 -3.8 0M436.1 138a1.9 1.9 0 1 0 3.8 0a1.9 1.9 0 1 0 -3.8 0M440.1 138a1.9 1.9 0 1 0 3.8 0a1.9 1.9 0 1 0 -3.8 0M444.1 130a1.9 1.9 0 1 0 3.8 0a1.9 1.9 0 1 0 -3.8 0M444.1 134a1.9 1.9 0 1 0 3.8 0a1.9 1.9 0 1 0 -3.8 0M444.1 138a1.9 1.9 0 1 0 3.8 0a1.9 1.9 0 1 0 -3.8 0M444.1 142a1.9 1.9 0 1 0 3.8 0a1.9 1.9 0 1 0 -3.8 0M448.1 138a1.9 1.9 0 1 0 3.8 0a1.9 1.9 0 1 0 -3.8 0M452.1 138a1.9 1.9 0 1 0 3.8 0a1.9 1.9 0 1 0 -3.8 0M456.1 138a1.9 1.9 0 1 0 3.8 0a1.9 1.9 0 1 0 -3.8 0M460.1 138a1.9 1.9 0 1 0 3.8 0a1.9 1.9 0 1 0 -3.8 0M464.1 138a1.9 1.9 0 1 0 3.8 0a1.9 1.9 0 1 0 -3.8 0M468.1 138a1.9 1.9 0 1 0 3.8 0a1.9 1.9 0 1 0 -3.8 0M472.1 138a1.9 1.9 0 1 0 3.8 0a1.9 1.9 0 1 0 -3.8 0M776.1 262a1.9 1.9 0 1 0 3.8 0a1.9 1.9 0 1 0 -3.8 0M780.1 262a1.9 1.9 0 1 0 3.8 0a1.9 1.9 0 1 0 -3.8 0M784.1 262a1.9 1.9 0 1 0 3.8 0a1.9 1.9 0 1 0 -3.8 0M788.1 262a1.9 1.9 0 1 0 3.8 0a1.9 1.9 0 1 0 -3.8 0M792.1 262a1.9 1.9 0 1 0 3.8 0a1.9 1.9 0 1 0 -3.8 0M796.1 262a1.9 1.9 0 1 0 3.8 0a1.9 1.9 0 1 0 -3.8 0M800.1 262a1.9 1.9 0 1 0 3.8 0a1.9 1.9 0 1 0 -3.8 0M804.1 262a1.9 1.9 0 1 0 3.8 0a1.9 1.9 0 1 0 -3.8 0M808.1 258a1.9 1.9 0 1 0 3.8 0a1.9 1.9 0 1 0 -3.8 0M808.1 262a1.9 1.9 0 1 0 3.8 0a1.9 1.9 0 1 0 -3.8 0M808.1 266a1.9 1.9 0 1 0 3.8 0a1.9 1.9 0 1 0 -3.8 0M812.1 262a1.9 1.9 0 1 0 3.8 0a1.9 1.9 0 1 0 -3.8 0M816.1 262a1.9 1.9 0 1 0 3.8 0a1.9 1.9 0 1 0 -3.8 0M820.1 262a1.9 1.9 0 1 0 3.8 0a1.9 1.9 0 1 0 -3.8 0M824.1 262a1.9 1.9 0 1 0 3.8 0a1.9 1.9 0 1 0 -3.8 0M828.1 262a1.9 1.9 0 1 0 3.8 0a1.9 1.9 0 1 0 -3.8 0M832.1 262a1.9 1.9 0 1 0 3.8 0a1.9 1.9 0 1 0 -3.8 0M836.1 262a1.9 1.9 0 1 0 3.8 0a1.9 1.9 0 1 0 -3.8 0M840.1 262a1.9 1.9 0 1 0 3.8 0a1.9 1.9 0 1 0 -3.8 0M844.1 262a1.9 1.9 0 1 0 3.8 0a1.9 1.9 0 1 0 -3.8 0M416.1 294a1.9 1.9 0 1 0 3.8 0a1.9 1.9 0 1 0 -3.8 0M420.1 294a1.9 1.9 0 1 0 3.8 0a1.9 1.9 0 1 0 -3.8 0M424.1 294a1.9 1.9 0 1 0 3.8 0a1.9 1.9 0 1 0 -3.8 0M428.1 294a1.9 1.9 0 1 0 3.8 0a1.9 1.9 0 1 0 -3.8 0M432.1 294a1.9 1.9 0 1 0 3.8 0a1.9 1.9 0 1 0 -3.8 0M436.1 294a1.9 1.9 0 1 0 3.8 0a1.9 1.9 0 1 0 -3.8 0M440.1 290a1.9 1.9 0 1 0 3.8 0a1.9 1.9 0 1 0 -3.8 0M440.1 294a1.9 1.9 0 1 0 3.8 0a1.9 1.9 0 1 0 -3.8 0M440.1 298a1.9 1.9 0 1 0 3.8 0a1.9 1.9 0 1 0 -3.8 0M444.1 294a1.9 1.9 0 1 0 3.8 0a1.9 1.9 0 1 0 -3.8 0M448.1 294a1.9 1.9 0 1 0 3.8 0a1.9 1.9 0 1 0 -3.8 0M452.1 294a1.9 1.9 0 1 0 3.8 0a1.9 1.9 0 1 0 -3.8 0M456.1 294a1.9 1.9 0 1 0 3.8 0a1.9 1.9 0 1 0 -3.8 0M460.1 294a1.9 1.9 0 1 0 3.8 0a1.9 1.9 0 1 0 -3.8 0M464.1 294a1.9 1.9 0 1 0 3.8 0a1.9 1.9 0 1 0 -3.8 0"/><path fill="#9ca3af" d="M312 22.5h8v3h-8zM320 22.5h8v3h-8zM392.1 50a1.9 1.9 0 1 0 3.8 0a1.9 1.9 0 1 0 -3.8 0M392.1 54a1.9 1.9 0 1 0 3.8 0a1.9 1.9 0 1 0 -3.8 0M392.1 58a1.9 1.9 0 1 0 3.8 0a1.9 1.9 0 1 0 -3.8 0M392.1 62a1.9 1.9 0 1 0 3.8 0a1.9 1.9 0 1 0 -3.8 0M392.1 66a1.9 1.9 0 1 0 3.8 0a1.9 1.9 0 1 0 -3.8 0M392.1 70a1.9 1.9 0 1 0 3.8 0a1.9 1.9 0 1 0 -3.8 0M392.1 74a1.9 1.9 0 1 0 3.8 0a1.9 1.9 0 1 0 -3.8 0M392.1 78a1.9 1.9 0 1 0 3.8 0a1.9 1.9 0 1 0 -3.8 0M400.1 74a1.9 1.9 0 1 0 3.8 0a1.9 1.9 0 1 0 -3.8 0M404.1 74a1.9 1.9 0 1 0 3.8 0a1.9 1.9 0 1 0 -3.8 0M408.1 74a1.9 1.9 0 1 0 3.8 0a1.9 1.9 0 1 0 -3.8 0M412.1 74a1.9 1.9 0 1 0 3.8 0a1.9 1.9 0 1 0 -3.8 0M416.1 70a1.9 1.9 0 1 0 3.8 0a1.9 1.9 0 1 0 -3.8 0M416.1 74a1.9 1.9 0 1 0 3.8 0a1.9 1.9 0 1 0 -3.8 0M420.1 74a1.9 1.9 0 1 0 3.8 0a1.9 1.9 0 1 0 -3.8 0M416.1 78a1.9 1.9 0 1 0 3.8 0a1.9 1.9 0 1 0 -3.8 0M424.1 74a1.9 1.9 0 1 0 3.8 0a1.9 1.9 0 1 0 -3.8 0M428.1 74a1.9 1.9 0 1 0 3.8 0a1.9 1.9 0 1 0 -3.8 0M432.1 74a1.9 1.9 0 1 0 3.8 0a1.9 1.9 0 1 0 -3.8 0M392.1 82a1.9 1.9 0 1 0 3.8 0a1.9 1.9 0 1 0 -3.8 0M392.1 86a1.9 1.9 0 1 0 3.8 0a1.9 1.9 0 1 0 -3.8 0M392.1 90a1.9 1.9 0 1 0 3.8 0a1.9 1.9 0 1 0 -3.8 0M392.1 94a1.9 1.9 0 1 0 3.8 0a1.9 1.9 0 1 0 -3.8 0M392.1 98a1.9 1.9 0 1 0 3.8 0a1.9 1.9 0 1 0 -3.8 0M392.1 102a1.9 1.9 0 1 0 3.8 0a1.9 1.9 0 1 0 -3.8 0M392.1 106a1.9 1.9 0 1 0 3.8 0a1.9 1.9 0 1 0 -3.8 0M392.1 110a1.9 1.9 0 1 0 3.8 0a1.9 1.9 0 1 0 -3.8 0M392.1 114a1.9 1.9 0 1 0 3.8 0a1.9 1.9 0 1 0 -3.8 0M392.1 118a1.9 1.9 0 1 0 3.8 0a1.9 1.9 0 1 0 -3.8 0M392.1 122a1.9 1.9 0 1 0 3.8 0a1.9 1.9 0 1 0 -3.8 0M392.1 126a1.9 1.9 0 1 0 3.8 0a1.9 1.9 0 1 0 -3.8 0M392.1 130a1.9 1.9 0 1 0 3.8 0a1.9 1.9 0 1 0 -3.8 0M392.1 134a1.9 1.9 0 1 0 3.8 0a1.9 1.9 0 1 0 -3.8 0M392.1 138a1.9 1.9 0 1 0 3.8 0a1.9 1.9 0 1 0 -3.8 0M392.1 142a1.9 1.9 0 1 0 3.8 0a1.9 1.9 0 1 0 -3.8 0M376.1 154a1.9 1.9 0 1 0 3.8 0a1.9 1.9 0 1 0 -3.8 0M380.1 154a1.9 1.9 0 1 0 3.8 0a1.9 1.9 0 1 0 -3.8 0M384.1 154a1.9 1.9 0 1 0 3.8 0a1.9 1.9 0 1 0 -3.8 0M388.1 154a1.9 1.9 0 1 0 3.8 0a1.9 1.9 0 1 0 -3.8 0M392.1 146a1.9 1.9 0 1 0 3.8 0a1.9 1.9 0 1 0 -3.8 0M392.1 150a1.9 1.9 0 1 0 3.8 0a1.9 1.9 0 1 0 -3.8 0M392.1 154a1.9 1.9 0 1 0 3.8 0a1.9 1.9 0 1 0 -3.8 0M396.1 154a1.9 1.9 0 1 0 3.8 0a1.9 1.9 0 1 0 -3.8 0M392.1 158a1.9 1.9 0 1 0 3.8 0a1.9 1.9 0 1 0 -3.8 0M400.1 154a1.9 1.9 0 1 0 3.8 0a1.9 1.9 0 1 0 -3.8 0M404.1 146a1.9 1.9 0 1 0 3.8 0a1.9 1.9 0 1 0 -3.8 0M404.1 150a1.9 1.9 0 1 0 3.8 0a1.9 1.9 0 1 0 -3.8 0M404.1 154a1.9 1.9 0 1 0 3.8 0a1.9 1.9 0 1 0 -3.8 0M404.1 158a1.9 1.9 0 1 0 3.8 0a1.9 1.9 0 1 0 -3.8 0M408.1 154a1.9 1.9 0 1 0 3.8 0a1.9 1.9 0 1 0 -3.8 0M412.1 154a1.9 1.9 0 1 0 3.8 0a1.9 1.9 0 1 0 -3.8 0M416.1 154a1.9 1.9 0 1 0 3.8 0a1.9 1.9 0 1 0 -3.8 0M420.1 154a1.9 1.9 0 1 0 3.8 0a1.9 1.9 0 1 0 -3.8 0M424.1 154a1.9 1.9 0 1 0 3.8 0a1.9 1.9 0 1 0 -3.8 0M428.1 154a1.9 1.9 0 1 0 3.8 0a1.9 1.9 0 1 0 -3.8 0M432.1 154a1.9 1.9 0 1 0 3.8 0a1.9 1.9 0 1 0 -3.8 0M392.1 162a1.9 1.9 0 1 0 3.8 0a1.9 1.9 0 1 0 -3.8 0M392.1 166a1.9 1.9 0 1 0 3.8 0a1.9 1.9 0 1 0 -3.8 0M392.1 170a1.9 1.9 0 1 0 3.8 0a1.9 1.9 0 1 0 -3.8 0M392.1 174a1.9 1.9 0 1 0 3.8 0a1.9 1.9 0 1 0 -3.8 0M400.1 170a1.9 1.9 0 1 0 3.8 0a1.9 1.9 0 1 0 -3.8 0M404.1 170a1.9 1.9 0 1 0 3.8 0a1.9 1.9 0 1 0 -3.8 0M408.1 170a1.9 1.9 0 1 0 3.8 0a1.9 1.9 0 1 0 -3.8 0M412.1 170a1.9 1.9 0 1 0 3.8 0a1.9 1.9 0 1 0 -3.8 0M416.1 170a1.9 1.9 0 1 0 3.8 0a1.9 1.9 0 1 0 -3.8 0M420.1 170a1.9 1.9 0 1 0 3.8 0a1.9 1.9 0 1 0 -3.8 0M424.1 170a1.9 1.9 0 1 0 3.8 0a1.9 1.9 0 1 0 -3.8 0M428.1 162a1.9 1.9 0 1 0 3.8 0a1.9 1.9 0 1 0 -3.8 0M428.1 166a1.9 1.9 0 1 0 3.8 0a1.9 1.9 0 1 0 -3.8 0M428.1 170a1.9 1.9 0 1 0 3.8 0a1.9 1.9 0 1 0 -3.8 0M428.1 174a1.9 1.9 0 1 0 3.8 0a1.9 1.9 0 1 0 -3.8 0M432.1 170a1.9 1.9 0 1 0 3.8 0a1.9 1.9 0 1 0 -3.8 0M436.1 170a1.9 1.9 0 1 0 3.8 0a1.9 1.9 0 1 0 -3.8 0M440.1 170a1.9 1.9 0 1 0 3.8 0a1.9 1.9 0 1 0 -3.8 0M444.1 170a1.9 1.9 0 1 0 3.8 0a1.9 1.9 0 1 0 -3.8 0M448.1 170a1.9 1.9 0 1 0 3.8 0a1.9 1.9 0 1 0 -3.8 0M452.1 170a1.9 1.9 0 1 0 3.8 0a1.9 1.9 0 1 0 -3.8 0M456.1 170a1.9 1.9 0 1 0 3.8 0a1.9 1.9 0 1 0 -3.8 0M376.1 182a1.9 1.9 0 1 0 3.8 0a1.9 1.9 0 1 0 -3.8 0M380.1 182a1.9 1.9 0 1 0 3.8 0a1.9 1.9 0 1 0 -3.8 0M384.1 182a1.9 1.9 0 1 0 3.8 0a1.9 1.9 0 1 0 -3.8 0M388.1 182a1.9 1.9 0 1 0 3.8 0a1.9 1.9 0 1 0 -3.8 0M392.1 178a1.9 1.9 0 1 0 3.8 0a1.9 1.9 0 1 0 -3.8 0M392.1 182a1.9 1.9 0 1 0 3.8 0a1.9 1.9 0 1 0 -3.8 0M392.1 186a1.9 1.9 0 1 0 3.8 0a1.9 1.9 0 1 0 -3.8 0M396.1 178a1.9 1.9 0 1 0 3.8 0a1.9 1.9 0 1 0 -3.8 0M396.1 182a1.9 1.9 0 1 0 3.8 0a1.9 1.9 0 1 0 -3.8 0M396.1 186a1.9 1.9 0 1 0 3.8 0a1.9 1.9 0 1 0 -3.8 0M392.1 190a1.9 1.9 0 1 0 3.8 0a1.9 1.9 0 1 0 -3.8 0M396.1 190a1.9 1.9 0 1 0 3.8 0a1.9 1.9 0 1 0 -3.8 0M400.1 182a1.9 1.9 0 1 0 3.8 0a1.9 1.9 0 1 0 -3.8 0M404.1 182a1.9 1.9 0 1 0 3.8 0a1.9 1.9 0 1 0 -3.8 0M408.1 182a1.9 1.9 0 1 0 3.8 0a1.9 1.9 0 1 0 -3.8 0M412.1 182a1.9 1.9 0 1 0 3.8 0a1.9 1.9 0 1 0 -3.8 0M416.1 182a1.9 1.9 0 1 0 3.8 0a1.9 1.9 0 1 0 -3.8 0M420.1 182a1.9 1.9 0 1 0 3.8 0a1.9 1.9 0 1 0 -3.8 0M380.1 198a1.9 1.9 0 1 0 3.8 0a1.9 1.9 0 1 0 -3.8 0M384.1 198a1.9 1.9 0 1 0 3.8 0a1.9 1.9 0 1 0 -3.8 0M388.1 198a1.9 1.9 0 1 0 3.8 0a1.9 1.9 0 1 0 -3.8 0M392.1 194a1.9 1.9 0 1 0 3.8 0a1.9 1.9 0 1 0 -3.8 0M392.1 198a1.9 1.9 0 1 0 3.8 0a1.9 1.9 0 1 0 -3.8 0M392.1 202a1.9 1.9 0 1 0 3.8 0a1.9 1.9 0 1 0 -3.8 0M396.1 198a1.9 1.9 0 1 0 3.8 0a1.9 1.9 0 1 0 -3.8 0M392.1 206a1.9 1.9 0 1 0 3.8 0a1.9 1.9 0 1 0 -3.8 0M400.1 198a1.9 1.9 0 1 0 3.8 0a1.9 1.9 0 1 0 -3.8 0M404.1 198a1.9 1.9 0 1 0 3.8 0a1.9 1.9 0 1 0 -3.8 0M408.1 194a1.9 1.9 0 1 0 3.8 0a1.9 1.9 0 1 0 -3.8 0M408.1 198a1.9 1.9 0 1 0 3.8 0a1.9 1.9 0 1 0 -3.8 0M408.1 202a1.9 1.9 0 1 0 3.8 0a1.9 1.9 0 1 0 -3.8 0M412.1 198a1.9 1.9 0 1 0 3.8 0a1.9 1.9 0 1 0 -3.8 0M408.1 206a1.9 1.9 0 1 0 3.8 0a1.9 1.9 0 1 0 -3.8 0M416.1 198a1.9 1.9 0 1 0 3.8 0a1.9 1.9 0 1 0 -3.8 0M420.1 198a1.9 1.9 0 1 0 3.8 0a1.9 1.9 0 1 0 -3.8 0M424.1 198a1.9 1.9 0 1 0 3.8 0a1.9 1.9 0 1 0 -3.8 0M428.1 198a1.9 1.9 0 1 0 3.8 0a1.9 1.9 0 1 0 -3.8 0M432.1 198a1.9 1.9 0 1 0 3.8 0a1.9 1.9 0 1 0 -3.8 0M436.1 198a1.9 1.9 0 1 0 3.8 0a1.9 1.9 0 1 0 -3.8 0M384.1 214a1.9 1.9 0 1 0 3.8 0a1.9 1.9 0 1 0 -3.8 0M388.1 214a1.9 1.9 0 1 0 3.8 0a1.9 1.9 0 1 0 -3.8 0M392.1 210a1.9 1.9 0 1 0 3.8 0a1.9 1.9 0 1 0 -3.8 0M392.1 214a1.9 1.9 0 1 0 3.8 0a1.9 1.9 0 1 0 -3.8 0M392.1 218a1.9 1.9 0 1 0 3.8 0a1.9 1.9 0 1 0 -3.8 0M396.1 214a1.9 1.9 0 1 0 3.8 0a1.9 1.9 0 1 0 -3.8 0M392.1 222a1.9 1.9 0 1 0 3.8 0a1.9 1.9 0 1 0 -3.8 0M400.1 214a1.9 1.9 0 1 0 3.8 0a1.9 1.9 0 1 0 -3.8 0M404.1 214a1.9 1.9 0 1 0 3.8 0a1.9 1.9 0 1 0 -3.8 0M408.1 210a1.9 1.9 0 1 0 3.8 0a1.9 1.9 0 1 0 -3.8 0M408.1 214a1.9 1.9 0 1 0 3.8 0a1.9 1.9 0 1 0 -3.8 0M408.1 218a1.9 1.9 0 1 0 3.8 0a1.9 1.9 0 1 0 -3.8 0M412.1 214a1.9 1.9 0 1 0 3.8 0a1.9 1.9 0 1 0 -3.8 0M408.1 222a1.9 1.9 0 1 0 3.8 0a1.9 1.9 0 1 0 -3.8 0M416.1 214a1.9 1.9 0 1 0 3.8 0a1.9 1.9 0 1 0 -3.8 0M420.1 214a1.9 1.9 0 1 0 3.8 0a1.9 1.9 0 1 0 -3.8 0M424.1 214a1.9 1.9 0 1 0 3.8 0a1.9 1.9 0 1 0 -3.8 0M428.1 214a1.9 1.9 0 1 0 3.8 0a1.9 1.9 0 1 0 -3.8 0M432.1 214a1.9 1.9 0 1 0 3.8 0a1.9 1.9 0 1 0 -3.8 0M436.1 214a1.9 1.9 0 1 0 3.8 0a1.9 1.9 0 1 0 -3.8 0M376.1 230a1.9 1.9 0 1 0 3.8 0a1.9 1.9 0 1 0 -3.8 0M380.1 230a1.9 1.9 0 1 0 3.8 0a1.9 1.9 0 1 0 -3.8 0M384.1 230a1.9 1.9 0 1 0 3.8 0a1.9 1.9 0 1 0 -3.8 0M388.1 230a1.9 1.9 0 1 0 3.8 0a1.9 1.9 0 1 0 -3.8 0M392.1 226a1.9 1.9 0 1 0 3.8 0a1.9 1.9 0 1 0 -3.8 0M392.1 230a1.9 1.9 0 1 0 3.8 0a1.9 1.9 0 1 0 -3.8 0M392.1 234a1.9 1.9 0 1 0 3.8 0a1.9 1.9 0 1 0 -3.8 0M396.1 230a1.9 1.9 0 1 0 3.8 0a1.9 1.9 0 1 0 -3.8 0M392.1 238a1.9 1.9 0 1 0 3.8 0a1.9 1.9 0 1 0 -3.8 0M400.1 230a1.9 1.9 0 1 0 3.8 0a1.9 1.9 0 1 0 -3.8 0M404.1 230a1.9 1.9 0 1 0 3.8 0a1.9 1.9 0 1 0 -3.8 0M408.1 230a1.9 1.9 0 1 0 3.8 0a1.9 1.9 0 1 0 -3.8 0M392.1 242a1.9 1.9 0 1 0 3.8 0a1.9 1.9 0 1 0 -3.8 0M392.1 246a1.9 1.9 0 1 0 3.8 0a1.9 1.9 0 1 0 -3.8 0M392.1 250a1.9 1.9 0 1 0 3.8 0a1.9 1.9 0 1 0 -3.8 0M396.1 246a1.9 1.9 0 1 0 3.8 0a1.9 1.9 0 1 0 -3.8 0M392.1 254a1.9 1.9 0 1 0 3.8 0a1.9 1.9 0 1 0 -3.8 0M400.1 246a1.9 1.9 0 1 0 3.8 0a1.9 1.9 0 1 0 -3.8 0M404.1 246a1.9 1.9 0 1 0 3.8 0a1.9 1.9 0 1 0 -3.8 0M408.1 246a1.9 1.9 0 1 0 3.8 0a1.9 1.9 0 1 0 -3.8 0M412.1 246a1.9 1.9 0 1 0 3.8 0a1.9 1.9 0 1 0 -3.8 0M416.1 246a1.9 1.9 0 1 0 3.8 0a1.9 1.9 0 1 0 -3.8 0M420.1 242a1.9 1.9 0 1 0 3.8 0a1.9 1.9 0 1 0 -3.8 0M420.1 246a1.9 1.9 0 1 0 3.8 0a1.9 1.9 0 1 0 -3.8 0M420.1 250a1.9 1.9 0 1 0 3.8 0a1.9 1.9 0 1 0 -3.8 0M424.1 246a1.9 1.9 0 1 0 3.8 0a1.9 1.9 0 1 0 -3.8 0M428.1 246a1.9 1.9 0 1 0 3.8 0a1.9 1.9 0 1 0 -3.8 0M432.1 246a1.9 1.9 0 1 0 3.8 0a1.9 1.9 0 1 0 -3.8 0M436.1 246a1.9 1.9 0 1 0 3.8 0a1.9 1.9 0 1 0 -3.8 0M440.1 246a1.9 1.9 0 1 0 3.8 0a1.9 1.9 0 1 0 -3.8 0M444.1 246a1.9 1.9 0 1 0 3.8 0a1.9 1.9 0 1 0 -3.8 0M392.1 258a1.9 1.9 0 1 0 3.8 0a1.9 1.9 0 1 0 -3.8 0M392.1 262a1.9 1.9 0 1 0 3.8 0a1.9 1.9 0 1 0 -3.8 0M392.1 266a1.9 1.9 0 1 0 3.8 0a1.9 1.9 0 1 0 -3.8 0M392.1 270a1.9 1.9 0 1 0 3.8 0a1.9 1.9 0 1 0 -3.8 0M380.1 278a1.9 1.9 0 1 0 3.8 0a1.9 1.9 0 1 0 -3.8 0M384.1 278a1.9 1.9 0 1 0 3.8 0a1.9 1.9 0 1 0 -3.8 0M388.1 278a1.9 1.9 0 1 0 3.8 0a1.9 1.9 0 1 0 -3.8 0M392.1 274a1.9 1.9 0 1 0 3.8 0a1.9 1.9 0 1 0 -3.8 0M392.1 278a1.9 1.9 0 1 0 3.8 0a1.9 1.9 0 1 0 -3.8 0M392.1 282a1.9 1.9 0 1 0 3.8 0a1.9 1.9 0 1 0 -3.8 0M396.1 278a1.9 1.9 0 1 0 3.8 0a1.9 1.9 0 1 0 -3.8 0M392.1 286a1.9 1.9 0 1 0 3.8 0a1.9 1.9 0 1 0 -3.8 0M400.1 278a1.9 1.9 0 1 0 3.8 0a1.9 1.9 0 1 0 -3.8 0M404.1 278a1.9 1.9 0 1 0 3.8 0a1.9 1.9 0 1 0 -3.8 0M408.1 274a1.9 1.9 0 1 0 3.8 0a1.9 1.9 0 1 0 -3.8 0M408.1 278a1.9 1.9 0 1 0 3.8 0a1.9 1.9 0 1 0 -3.8 0M408.1 282a1.9 1.9 0 1 0 3.8 0a1.9 1.9 0 1 0 -3.8 0M412.1 278a1.9 1.9 0 1 0 3.8 0a1.9 1.9 0 1 0 -3.8 0M416.1 278a1.9 1.9 0 1 0 3.8 0a1.9 1.9 0 1 0 -3.8 0M420.1 278a1.9 1.9 0 1 0 3.8 0a1.9 1.9 0 1 0 -3.8 0M424.1 278a1.9 1.9 0 1 0 3.8 0a1.9 1.9 0 1 0 -3.8 0M428.1 278a1.9 1.9 0 1 0 3.8 0a1.9 1.9 0 1 0 -3.8 0M432.1 278a1.9 1.9 0 1 0 3.8 0a1.9 1.9 0 1 0 -3.8 0M392.1 290a1.9 1.9 0 1 0 3.8 0a1.9 1.9 0 1 0 -3.8 0M392.1 294a1.9 1.9 0 1 0 3.8 0a1.9 1.9 0 1 0 -3.8 0M392.1 298a1.9 1.9 0 1 0 3.8 0a1.9 1.9 0 1 0 -3.8 0M392.1 302a1.9 1.9 0 1 0 3.8 0a1.9 1.9 0 1 0 -3.8 0"/><text x="0 8 16 24 32 40 48 56" y="12" fill="#1f2937" font-weight="600">Accuracy</text><text x="72 80 88 96 104 112 120 128 136 144 152" y="12" fill="#1f2937" font-weight="600">difference,</text><text x="168 176 184 192 200" y="12" fill="#1f2937" font-weight="600">first</text><text x="216 224 232" y="12" fill="#1f2937" font-weight="600">run</text><text x="248 256 264 272 280" y="12" fill="#1f2937" font-weight="600">minus</text><text x="296 304 312 320 328 336 344" y="12" fill="#1f2937" font-weight="600">second,</text><text x="360 368" y="12" fill="#1f2937" font-weight="600">in</text><text x="384 392 400 408 416 424 432 440 448 456" y="12" fill="#1f2937" font-weight="600">percentage</text><text x="472 480 488 496 504 512 520" y="12" fill="#1f2937" font-weight="600">points,</text><text x="536 544 552 560" y="12" fill="#1f2937" font-weight="600">with</text><text x="576 584 592" y="12" fill="#1f2937" font-weight="600">95%</text><text x="608 616 624 632 640 648 656 664 672" y="12" fill="#1f2937" font-weight="600">intervals</text><text x="24 32 40 48 56 64 72 80 88 96 104" y="28" fill="#1f2937">significant</text><text x="120 128 136 144 152" y="28" fill="#1f2937">after</text><text x="168 176 184 192" y="28" fill="#1f2937">Holm</text><text x="208 216 224 232 240 248 256 264 272 280" y="28" fill="#1f2937">correction</text><text x="336 344 352" y="28" fill="#1f2937">not</text><text x="368 376 384 392 400 408 416 424 432 440 448" y="28" fill="#1f2937">significant</text><text x="0 8 16 24 32" y="60" fill="#1f2937">GPT-6</text><text x="48 56 64 72 80" y="60" fill="#1f2937">Astra</text><text x="96 104 112 120 128" y="60" fill="#1f2937">(low)</text><text x="144 152" y="60" fill="#1f2937">vs</text><text x="168 176 184 192 200 208 216 224" y="60" fill="#1f2937">DeepSeek</text><text x="240 248 256 264" y="60" fill="#1f2937">V4.1</text><text x="280 288 296 304" y="60" fill="#1f2937">(on)</text><text x="928 936 944 952" y="60" fill="#2563eb">+5.2</text><text x="24 32 40 48 56 64 72 80" y="76" fill="#1f2937">DeepSeek</text><text x="96 104 112 120" y="76" fill="#1f2937">V4.1</text><text x="136 144 152 160" y="76" fill="#1f2937">(on)</text><text x="176 184" y="76" fill="#1f2937">vs</text><text x="200 208 216 224" y="76" fill="#1f2937">Opus</text><text x="240 248 256" y="76" fill="#1f2937">5.5</text><text x="272 280 288 296 304" y="76" fill="#1f2937">(low)</text><text x="928 936 944 952" y="76" fill="#6b7280">+1.9</text><text x="32 40 48 56" y="92" fill="#1f2937">Opus</text><text x="72 80 88" y="92" fill="#1f2937">5.5</text><text x="104 112 120 128 136" y="92" fill="#1f2937">(low)</text><text x="152 160" y="92" fill="#1f2937">vs</text><text x="176 184 192 200 208 216" y="92" fill="#1f2937">Sonnet</text><text x="232 240 248" y="92" fill="#1f2937">5.5</text><text x="264 272 280 288 296 304" y="92" fill="#1f2937">(high)</text><text x="928 936 944 952" y="92" fill="#2563eb">+5.4</text><text x="56 64 72 80 88 96" y="108" fill="#1f2937">Sonnet</text><text x="112 120 128" y="108" fill="#1f2937">5.5</text><text x="144 152 160 168 176 184" y="108" fill="#1f2937">(high)</text><text x="200 208" y="108" fill="#1f2937">vs</text><text x="224 232 240 248 256" y="108" fill="#1f2937">Gemma</text><text x="272" y="108" fill="#1f2937">4</text><text x="288 296 304" y="108" fill="#1f2937">31B</text><text x="920 928 936 944 952" y="108" fill="#2563eb">+11.1</text><text x="40 48 56 64 72" y="124" fill="#1f2937">Gemma</text><text x="88" y="124" fill="#1f2937">4</text><text x="104 112 120" y="124" fill="#1f2937">31B</text><text x="136 144" y="124" fill="#1f2937">vs</text><text x="160 168 176 184 192 200 208 216" y="124" fill="#1f2937">DeepSeek</text><text x="232 240 248 256" y="124" fill="#1f2937">V4.1</text><text x="272 280 288 296 304" y="124" fill="#1f2937">(off)</text><text x="928 936 944 952" y="124" fill="#2563eb">+8.2</text><text x="0 8 16 24 32 40 48 56" y="140" fill="#1f2937">DeepSeek</text><text x="72 80 88 96" y="140" fill="#1f2937">V4.1</text><text x="112 120 128 136 144" y="140" fill="#1f2937">(off)</text><text x="160 168" y="140" fill="#1f2937">vs</text><text x="184 192 200 208 216 224" y="140" fill="#1f2937">Sonnet</text><text x="240 248 256" y="140" fill="#1f2937">5.5</text><text x="272 280 288 296 304" y="140" fill="#1f2937">(low)</text><text x="928 936 944 952" y="140" fill="#2563eb">+4.3</text><text x="96 104 112 120 128 136" y="156" fill="#1f2937">Sonnet</text><text x="152 160 168" y="156" fill="#1f2937">5.5</text><text x="184 192 200 208 216" y="156" fill="#1f2937">(low)</text><text x="232 240" y="156" fill="#1f2937">vs</text><text x="256 264 272 280 288 296 304" y="156" fill="#1f2937">Decider</text><text x="928 936 944 952" y="156" fill="#6b7280">+1.0</text><text x="200 208 216 224 232 240 248" y="172" fill="#1f2937">Decider</text><text x="264 272" y="172" fill="#1f2937">vs</text><text x="288 296 304" y="172" fill="#1f2937">Jev</text><text x="928 936 944 952" y="172" fill="#6b7280">+2.9</text><text x="240 248 256" y="188" fill="#1f2937">Jev</text><text x="272 280" y="188" fill="#1f2937">vs</text><text x="296 304" y="188" fill="#1f2937">d1</text><text x="928 936 944 952" y="188" fill="#6b7280">+0.5</text><text x="200 208" y="204" fill="#1f2937">d1</text><text x="224 232" y="204" fill="#1f2937">vs</text><text x="248 256 264 272 280 288 296 304" y="204" fill="#1f2937">Open-Jev</text><text x="928 936 944 952" y="204" fill="#6b7280">+1.3</text><text x="72 80 88 96 104 112 120 128" y="220" fill="#1f2937">Open-Jev</text><text x="144 152" y="220" fill="#1f2937">vs</text><text x="168 176 184 192 200 208 216" y="220" fill="#1f2937">Qwen3.8</text><text x="232 240 248 256" y="220" fill="#1f2937">vote</text><text x="272 280 288 296 304" y="220" fill="#1f2937">share</text><text x="928 936 944 952" y="220" fill="#6b7280">+1.4</text><text x="24 32 40 48 56 64 72" y="236" fill="#1f2937">Qwen3.8</text><text x="88 96 104 112" y="236" fill="#1f2937">vote</text><text x="128 136 144 152 160" y="236" fill="#1f2937">share</text><text x="176 184" y="236" fill="#1f2937">vs</text><text x="200 208 216 224 232 240 248" y="236" fill="#1f2937">Qwen3.8</text><text x="264 272 280 288 296 304" y="236" fill="#1f2937">stated</text><text x="928 936 944 952" y="236" fill="#6b7280">+0.1</text><text x="56 64 72 80 88 96 104" y="252" fill="#1f2937">Qwen3.8</text><text x="120 128 136 144 152 160" y="252" fill="#1f2937">stated</text><text x="176 184" y="252" fill="#1f2937">vs</text><text x="200 208 216 224 232 240 248" y="252" fill="#1f2937">Qwen3.8</text><text x="264 272 280 288 296 304" y="252" fill="#1f2937">yes/no</text><text x="928 936 944 952" y="252" fill="#6b7280">+2.3</text><text x="136 144 152 160 168 176 184" y="268" fill="#1f2937">Qwen3.8</text><text x="200 208 216 224 232 240" y="268" fill="#1f2937">yes/no</text><text x="256 264" y="268" fill="#1f2937">vs</text><text x="280 288 296 304" y="268" fill="#1f2937">Laya</text><text x="920 928 936 944 952" y="268" fill="#2563eb">+32.9</text><text x="112 120 128 136" y="284" fill="#1f2937">Laya</text><text x="152 160" y="284" fill="#1f2937">vs</text><text x="176 184 192 200" y="284" fill="#1f2937">Laya</text><text x="216 224 232 240 248 256 264 272 280 288 296 304" y="284" fill="#1f2937">multilingual</text><text x="928 936 944 952" y="284" fill="#6b7280">+1.1</text><text x="104 112 120 128 136 144 152 160" y="300" fill="#1f2937">Open-Jev</text><text x="176 184" y="300" fill="#1f2937">vs</text><text x="200 208 216 224 232 240 248" y="300" fill="#1f2937">Qwen3.8</text><text x="264 272 280 288 296 304" y="300" fill="#1f2937">yes/no</text><text x="928 936 944 952" y="300" fill="#2563eb">+3.8</text><text x="328 336" y="316" fill="#6b7280">-5</text><text x="392" y="316" fill="#6b7280">0</text><text x="448 456" y="316" fill="#6b7280">+5</text><text x="512 520 528" y="316" fill="#6b7280">+10</text><text x="576 584 592" y="316" fill="#6b7280">+15</text><text x="632 640 648" y="316" fill="#6b7280">+20</text><text x="696 704 712" y="316" fill="#6b7280">+25</text><text x="760 768 776" y="316" fill="#6b7280">+30</text><text x="824 832 840" y="316" fill="#6b7280">+35</text><text x="880 888 896" y="316" fill="#6b7280">+40</text><text x="552 560 568 576 584 592 600 608 616 624" y="332" fill="#6b7280">percentage</text><text x="640 648 656 664 672 680" y="332" fill="#6b7280">points</text></svg>
